<svg xmlns="http://www.w3.org/2000/svg" width="62" height="40" viewBox="0 0 212 136" fill="none">
<path d="M168.272 14.6523C161.663 14.6523 155.112 16.1738 149.162 19.0731C140.035 9.04732 127.841 2.58979 114.579 0.632797C114.575 0.632339 114.572 0.631878 114.568 0.63142C113.881 0.530228 113.192 0.440026 112.499 0.363101C112.478 0.360812 112.458 0.358065 112.437 0.355776C111.756 0.281141 111.073 0.217494 110.388 0.166211C110.303 0.159801 110.218 0.155682 110.134 0.149729C109.572 0.110351 109.01 0.0792146 108.446 0.0558625C108.28 0.0489943 108.115 0.0421261 107.949 0.0366315C107.301 0.0146531 106.652 0 106 0C105.348 0 104.699 0.0146534 104.051 0.0361739C103.885 0.0416685 103.72 0.0485366 103.554 0.0554049C102.99 0.0787569 102.428 0.10989 101.866 0.149268C101.782 0.155221 101.696 0.159343 101.612 0.165754C100.927 0.217036 100.244 0.280683 99.5631 0.355318C99.5425 0.357607 99.5219 0.360354 99.5013 0.362644C98.8085 0.439568 98.1189 0.52977 97.4316 0.630962C97.428 0.63142 97.4248 0.631878 97.4211 0.632335C84.1594 2.58933 71.9646 9.0464 62.8376 19.0727C56.8879 16.1738 50.3374 14.6523 43.7279 14.6523C19.6162 14.6523 0 34.2684 0 58.3801C0 74.0654 8.5093 88.5253 21.9784 96.27V124.315C21.9784 130.249 26.8054 135.076 32.7387 135.076H179.261C185.195 135.076 190.022 130.249 190.022 124.315V96.27C203.491 88.5253 212 74.0654 212 58.3801C212 34.2684 192.384 14.6523 168.272 14.6523ZM120.652 128.207H91.3477C87.1819 128.207 83.7927 124.818 83.7927 120.652C83.7927 116.486 87.1819 113.097 91.3477 113.097H120.652C124.818 113.097 128.207 116.486 128.207 120.652C128.207 124.818 124.818 128.207 120.652 128.207ZM183.153 124.315C183.153 126.461 181.407 128.207 179.261 128.207H132.932C134.29 126.009 135.076 123.421 135.076 120.652C135.076 112.699 128.605 106.229 120.652 106.229H91.3477C83.3948 106.229 76.9244 112.699 76.9244 120.652C76.9244 123.421 77.7101 126.009 79.0678 128.207H32.7387C30.5926 128.207 28.8467 126.461 28.8467 124.315V98.4449H183.153V124.315ZM184.208 91.5767H154.026C155.35 89.6659 156.56 87.6787 157.645 85.626C158.532 83.9492 157.891 81.8714 156.214 80.9854C154.537 80.0989 152.459 80.7399 151.573 82.4163C149.85 85.6759 147.773 88.7506 145.389 91.5762H66.611C64.2273 88.7506 62.1503 85.6759 60.4278 82.4163C59.5409 80.7395 57.4634 80.098 55.7867 80.9849C54.1099 81.8714 53.4689 83.9488 54.3553 85.6256C55.4405 87.6782 56.6507 89.6655 57.974 91.5762H27.7921C15.0593 85.4525 6.86825 72.5045 6.86825 58.3801C6.86825 38.0556 23.4033 21.5205 43.7279 21.5205C48.7774 21.5205 53.7857 22.5796 58.4154 24.5993C56.126 27.8247 54.136 31.3073 52.5101 35.0258C51.7504 36.7635 52.543 38.7882 54.2812 39.5483C56.0179 40.3084 58.0436 39.5149 58.8032 37.7777C65.986 21.3493 81.066 10.0075 98.4298 7.42687C98.4321 7.42687 98.4349 7.42641 98.4371 7.42595C99.6295 7.24875 100.833 7.11551 102.045 7.02256C102.174 7.01248 102.304 7.00424 102.434 6.99554C102.887 6.96395 103.342 6.93922 103.797 6.91953C103.953 6.91312 104.109 6.90534 104.266 6.9003C104.842 6.88107 105.42 6.86825 106 6.86825C106.581 6.86825 107.158 6.88107 107.735 6.9003C107.892 6.90534 108.048 6.91312 108.204 6.91953C108.659 6.93922 109.114 6.96395 109.566 6.99554C109.696 7.0047 109.826 7.01248 109.956 7.02256C111.168 7.11551 112.371 7.24875 113.564 7.42595C113.566 7.42641 113.569 7.42687 113.571 7.42687C130.935 10.007 146.015 21.3493 153.198 37.7777C153.762 39.0675 155.023 39.8368 156.346 39.8368C156.805 39.8368 157.272 39.7438 157.72 39.5483C159.457 38.7882 160.25 36.7635 159.491 35.0258C157.865 31.3073 155.875 27.8247 153.586 24.5993C158.216 22.5796 163.224 21.5205 168.273 21.5205C188.598 21.5205 205.133 38.0556 205.133 58.3801C205.132 72.5045 196.941 85.4525 184.208 91.5767Z" fill="#7D5A50"/>
</svg>
